# torus for GamePBR step 06 (major R=1.0, minor r=0.4, 32x16)
v 1.400000 0.000000 0.000000
v 1.369552 0.153073 0.000000
v 1.282843 0.282843 0.000000
v 1.153073 0.369552 0.000000
v 1.000000 0.400000 0.000000
v 0.846927 0.369552 0.000000
v 0.717157 0.282843 0.000000
v 0.630448 0.153073 0.000000
v 0.600000 0.000000 0.000000
v 0.630448 -0.153073 0.000000
v 0.717157 -0.282843 0.000000
v 0.846927 -0.369552 0.000000
v 1.000000 -0.400000 0.000000
v 1.153073 -0.369552 0.000000
v 1.282843 -0.282843 0.000000
v 1.369552 -0.153073 0.000000
v 1.400000 -0.000000 0.000000
v 1.373099 0.000000 0.273126
v 1.343236 0.153073 0.267186
v 1.258193 0.282843 0.250270
v 1.130917 0.369552 0.224953
v 0.980785 0.400000 0.195090
v 0.830653 0.369552 0.165227
v 0.703377 0.282843 0.139910
v 0.618334 0.153073 0.122994
v 0.588471 0.000000 0.117054
v 0.618334 -0.153073 0.122994
v 0.703377 -0.282843 0.139910
v 0.830653 -0.369552 0.165227
v 0.980785 -0.400000 0.195090
v 1.130917 -0.369552 0.224953
v 1.258193 -0.282843 0.250270
v 1.343236 -0.153073 0.267186
v 1.373099 -0.000000 0.273126
v 1.293431 0.000000 0.535757
v 1.265301 0.153073 0.524105
v 1.185192 0.282843 0.490923
v 1.065301 0.369552 0.441262
v 0.923880 0.400000 0.382683
v 0.782458 0.369552 0.324105
v 0.662567 0.282843 0.274444
v 0.582458 0.153073 0.241262
v 0.554328 0.000000 0.229610
v 0.582458 -0.153073 0.241262
v 0.662567 -0.282843 0.274444
v 0.782458 -0.369552 0.324105
v 0.923880 -0.400000 0.382683
v 1.065301 -0.369552 0.441262
v 1.185192 -0.282843 0.490923
v 1.265301 -0.153073 0.524105
v 1.293431 -0.000000 0.535757
v 1.164057 0.000000 0.777798
v 1.138741 0.153073 0.760882
v 1.066645 0.282843 0.712709
v 0.958745 0.369552 0.640613
v 0.831470 0.400000 0.555570
v 0.704194 0.369552 0.470527
v 0.596294 0.282843 0.398431
v 0.524199 0.153073 0.350258
v 0.498882 0.000000 0.333342
v 0.524199 -0.153073 0.350258
v 0.596294 -0.282843 0.398431
v 0.704194 -0.369552 0.470527
v 0.831470 -0.400000 0.555570
v 0.958745 -0.369552 0.640613
v 1.066645 -0.282843 0.712709
v 1.138741 -0.153073 0.760882
v 1.164057 -0.000000 0.777798
v 0.989949 0.000000 0.989949
v 0.968419 0.153073 0.968419
v 0.907107 0.282843 0.907107
v 0.815346 0.369552 0.815346
v 0.707107 0.400000 0.707107
v 0.598868 0.369552 0.598868
v 0.507107 0.282843 0.507107
v 0.445794 0.153073 0.445794
v 0.424264 0.000000 0.424264
v 0.445794 -0.153073 0.445794
v 0.507107 -0.282843 0.507107
v 0.598868 -0.369552 0.598868
v 0.707107 -0.400000 0.707107
v 0.815346 -0.369552 0.815346
v 0.907107 -0.282843 0.907107
v 0.968419 -0.153073 0.968419
v 0.989949 -0.000000 0.989949
v 0.777798 0.000000 1.164057
v 0.760882 0.153073 1.138741
v 0.712709 0.282843 1.066645
v 0.640613 0.369552 0.958745
v 0.555570 0.400000 0.831470
v 0.470527 0.369552 0.704194
v 0.398431 0.282843 0.596294
v 0.350258 0.153073 0.524199
v 0.333342 0.000000 0.498882
v 0.350258 -0.153073 0.524199
v 0.398431 -0.282843 0.596294
v 0.470527 -0.369552 0.704194
v 0.555570 -0.400000 0.831470
v 0.640613 -0.369552 0.958745
v 0.712709 -0.282843 1.066645
v 0.760882 -0.153073 1.138741
v 0.777798 -0.000000 1.164057
v 0.535757 0.000000 1.293431
v 0.524105 0.153073 1.265301
v 0.490923 0.282843 1.185192
v 0.441262 0.369552 1.065301
v 0.382683 0.400000 0.923880
v 0.324105 0.369552 0.782458
v 0.274444 0.282843 0.662567
v 0.241262 0.153073 0.582458
v 0.229610 0.000000 0.554328
v 0.241262 -0.153073 0.582458
v 0.274444 -0.282843 0.662567
v 0.324105 -0.369552 0.782458
v 0.382683 -0.400000 0.923880
v 0.441262 -0.369552 1.065301
v 0.490923 -0.282843 1.185192
v 0.524105 -0.153073 1.265301
v 0.535757 -0.000000 1.293431
v 0.273126 0.000000 1.373099
v 0.267186 0.153073 1.343236
v 0.250270 0.282843 1.258193
v 0.224953 0.369552 1.130917
v 0.195090 0.400000 0.980785
v 0.165227 0.369552 0.830653
v 0.139910 0.282843 0.703377
v 0.122994 0.153073 0.618334
v 0.117054 0.000000 0.588471
v 0.122994 -0.153073 0.618334
v 0.139910 -0.282843 0.703377
v 0.165227 -0.369552 0.830653
v 0.195090 -0.400000 0.980785
v 0.224953 -0.369552 1.130917
v 0.250270 -0.282843 1.258193
v 0.267186 -0.153073 1.343236
v 0.273126 -0.000000 1.373099
v 0.000000 0.000000 1.400000
v 0.000000 0.153073 1.369552
v 0.000000 0.282843 1.282843
v 0.000000 0.369552 1.153073
v 0.000000 0.400000 1.000000
v 0.000000 0.369552 0.846927
v 0.000000 0.282843 0.717157
v 0.000000 0.153073 0.630448
v 0.000000 0.000000 0.600000
v 0.000000 -0.153073 0.630448
v 0.000000 -0.282843 0.717157
v 0.000000 -0.369552 0.846927
v 0.000000 -0.400000 1.000000
v 0.000000 -0.369552 1.153073
v 0.000000 -0.282843 1.282843
v 0.000000 -0.153073 1.369552
v 0.000000 -0.000000 1.400000
v -0.273126 0.000000 1.373099
v -0.267186 0.153073 1.343236
v -0.250270 0.282843 1.258193
v -0.224953 0.369552 1.130917
v -0.195090 0.400000 0.980785
v -0.165227 0.369552 0.830653
v -0.139910 0.282843 0.703377
v -0.122994 0.153073 0.618334
v -0.117054 0.000000 0.588471
v -0.122994 -0.153073 0.618334
v -0.139910 -0.282843 0.703377
v -0.165227 -0.369552 0.830653
v -0.195090 -0.400000 0.980785
v -0.224953 -0.369552 1.130917
v -0.250270 -0.282843 1.258193
v -0.267186 -0.153073 1.343236
v -0.273126 -0.000000 1.373099
v -0.535757 0.000000 1.293431
v -0.524105 0.153073 1.265301
v -0.490923 0.282843 1.185192
v -0.441262 0.369552 1.065301
v -0.382683 0.400000 0.923880
v -0.324105 0.369552 0.782458
v -0.274444 0.282843 0.662567
v -0.241262 0.153073 0.582458
v -0.229610 0.000000 0.554328
v -0.241262 -0.153073 0.582458
v -0.274444 -0.282843 0.662567
v -0.324105 -0.369552 0.782458
v -0.382683 -0.400000 0.923880
v -0.441262 -0.369552 1.065301
v -0.490923 -0.282843 1.185192
v -0.524105 -0.153073 1.265301
v -0.535757 -0.000000 1.293431
v -0.777798 0.000000 1.164057
v -0.760882 0.153073 1.138741
v -0.712709 0.282843 1.066645
v -0.640613 0.369552 0.958745
v -0.555570 0.400000 0.831470
v -0.470527 0.369552 0.704194
v -0.398431 0.282843 0.596294
v -0.350258 0.153073 0.524199
v -0.333342 0.000000 0.498882
v -0.350258 -0.153073 0.524199
v -0.398431 -0.282843 0.596294
v -0.470527 -0.369552 0.704194
v -0.555570 -0.400000 0.831470
v -0.640613 -0.369552 0.958745
v -0.712709 -0.282843 1.066645
v -0.760882 -0.153073 1.138741
v -0.777798 -0.000000 1.164057
v -0.989949 0.000000 0.989949
v -0.968419 0.153073 0.968419
v -0.907107 0.282843 0.907107
v -0.815346 0.369552 0.815346
v -0.707107 0.400000 0.707107
v -0.598868 0.369552 0.598868
v -0.507107 0.282843 0.507107
v -0.445794 0.153073 0.445794
v -0.424264 0.000000 0.424264
v -0.445794 -0.153073 0.445794
v -0.507107 -0.282843 0.507107
v -0.598868 -0.369552 0.598868
v -0.707107 -0.400000 0.707107
v -0.815346 -0.369552 0.815346
v -0.907107 -0.282843 0.907107
v -0.968419 -0.153073 0.968419
v -0.989949 -0.000000 0.989949
v -1.164057 0.000000 0.777798
v -1.138741 0.153073 0.760882
v -1.066645 0.282843 0.712709
v -0.958745 0.369552 0.640613
v -0.831470 0.400000 0.555570
v -0.704194 0.369552 0.470527
v -0.596294 0.282843 0.398431
v -0.524199 0.153073 0.350258
v -0.498882 0.000000 0.333342
v -0.524199 -0.153073 0.350258
v -0.596294 -0.282843 0.398431
v -0.704194 -0.369552 0.470527
v -0.831470 -0.400000 0.555570
v -0.958745 -0.369552 0.640613
v -1.066645 -0.282843 0.712709
v -1.138741 -0.153073 0.760882
v -1.164057 -0.000000 0.777798
v -1.293431 0.000000 0.535757
v -1.265301 0.153073 0.524105
v -1.185192 0.282843 0.490923
v -1.065301 0.369552 0.441262
v -0.923880 0.400000 0.382683
v -0.782458 0.369552 0.324105
v -0.662567 0.282843 0.274444
v -0.582458 0.153073 0.241262
v -0.554328 0.000000 0.229610
v -0.582458 -0.153073 0.241262
v -0.662567 -0.282843 0.274444
v -0.782458 -0.369552 0.324105
v -0.923880 -0.400000 0.382683
v -1.065301 -0.369552 0.441262
v -1.185192 -0.282843 0.490923
v -1.265301 -0.153073 0.524105
v -1.293431 -0.000000 0.535757
v -1.373099 0.000000 0.273126
v -1.343236 0.153073 0.267186
v -1.258193 0.282843 0.250270
v -1.130917 0.369552 0.224953
v -0.980785 0.400000 0.195090
v -0.830653 0.369552 0.165227
v -0.703377 0.282843 0.139910
v -0.618334 0.153073 0.122994
v -0.588471 0.000000 0.117054
v -0.618334 -0.153073 0.122994
v -0.703377 -0.282843 0.139910
v -0.830653 -0.369552 0.165227
v -0.980785 -0.400000 0.195090
v -1.130917 -0.369552 0.224953
v -1.258193 -0.282843 0.250270
v -1.343236 -0.153073 0.267186
v -1.373099 -0.000000 0.273126
v -1.400000 0.000000 0.000000
v -1.369552 0.153073 0.000000
v -1.282843 0.282843 0.000000
v -1.153073 0.369552 0.000000
v -1.000000 0.400000 0.000000
v -0.846927 0.369552 0.000000
v -0.717157 0.282843 0.000000
v -0.630448 0.153073 0.000000
v -0.600000 0.000000 0.000000
v -0.630448 -0.153073 0.000000
v -0.717157 -0.282843 0.000000
v -0.846927 -0.369552 0.000000
v -1.000000 -0.400000 0.000000
v -1.153073 -0.369552 0.000000
v -1.282843 -0.282843 0.000000
v -1.369552 -0.153073 0.000000
v -1.400000 -0.000000 0.000000
v -1.373099 0.000000 -0.273126
v -1.343236 0.153073 -0.267186
v -1.258193 0.282843 -0.250270
v -1.130917 0.369552 -0.224953
v -0.980785 0.400000 -0.195090
v -0.830653 0.369552 -0.165227
v -0.703377 0.282843 -0.139910
v -0.618334 0.153073 -0.122994
v -0.588471 0.000000 -0.117054
v -0.618334 -0.153073 -0.122994
v -0.703377 -0.282843 -0.139910
v -0.830653 -0.369552 -0.165227
v -0.980785 -0.400000 -0.195090
v -1.130917 -0.369552 -0.224953
v -1.258193 -0.282843 -0.250270
v -1.343236 -0.153073 -0.267186
v -1.373099 -0.000000 -0.273126
v -1.293431 0.000000 -0.535757
v -1.265301 0.153073 -0.524105
v -1.185192 0.282843 -0.490923
v -1.065301 0.369552 -0.441262
v -0.923880 0.400000 -0.382683
v -0.782458 0.369552 -0.324105
v -0.662567 0.282843 -0.274444
v -0.582458 0.153073 -0.241262
v -0.554328 0.000000 -0.229610
v -0.582458 -0.153073 -0.241262
v -0.662567 -0.282843 -0.274444
v -0.782458 -0.369552 -0.324105
v -0.923880 -0.400000 -0.382683
v -1.065301 -0.369552 -0.441262
v -1.185192 -0.282843 -0.490923
v -1.265301 -0.153073 -0.524105
v -1.293431 -0.000000 -0.535757
v -1.164057 0.000000 -0.777798
v -1.138741 0.153073 -0.760882
v -1.066645 0.282843 -0.712709
v -0.958745 0.369552 -0.640613
v -0.831470 0.400000 -0.555570
v -0.704194 0.369552 -0.470527
v -0.596294 0.282843 -0.398431
v -0.524199 0.153073 -0.350258
v -0.498882 0.000000 -0.333342
v -0.524199 -0.153073 -0.350258
v -0.596294 -0.282843 -0.398431
v -0.704194 -0.369552 -0.470527
v -0.831470 -0.400000 -0.555570
v -0.958745 -0.369552 -0.640613
v -1.066645 -0.282843 -0.712709
v -1.138741 -0.153073 -0.760882
v -1.164057 -0.000000 -0.777798
v -0.989949 0.000000 -0.989949
v -0.968419 0.153073 -0.968419
v -0.907107 0.282843 -0.907107
v -0.815346 0.369552 -0.815346
v -0.707107 0.400000 -0.707107
v -0.598868 0.369552 -0.598868
v -0.507107 0.282843 -0.507107
v -0.445794 0.153073 -0.445794
v -0.424264 0.000000 -0.424264
v -0.445794 -0.153073 -0.445794
v -0.507107 -0.282843 -0.507107
v -0.598868 -0.369552 -0.598868
v -0.707107 -0.400000 -0.707107
v -0.815346 -0.369552 -0.815346
v -0.907107 -0.282843 -0.907107
v -0.968419 -0.153073 -0.968419
v -0.989949 -0.000000 -0.989949
v -0.777798 0.000000 -1.164057
v -0.760882 0.153073 -1.138741
v -0.712709 0.282843 -1.066645
v -0.640613 0.369552 -0.958745
v -0.555570 0.400000 -0.831470
v -0.470527 0.369552 -0.704194
v -0.398431 0.282843 -0.596294
v -0.350258 0.153073 -0.524199
v -0.333342 0.000000 -0.498882
v -0.350258 -0.153073 -0.524199
v -0.398431 -0.282843 -0.596294
v -0.470527 -0.369552 -0.704194
v -0.555570 -0.400000 -0.831470
v -0.640613 -0.369552 -0.958745
v -0.712709 -0.282843 -1.066645
v -0.760882 -0.153073 -1.138741
v -0.777798 -0.000000 -1.164057
v -0.535757 0.000000 -1.293431
v -0.524105 0.153073 -1.265301
v -0.490923 0.282843 -1.185192
v -0.441262 0.369552 -1.065301
v -0.382683 0.400000 -0.923880
v -0.324105 0.369552 -0.782458
v -0.274444 0.282843 -0.662567
v -0.241262 0.153073 -0.582458
v -0.229610 0.000000 -0.554328
v -0.241262 -0.153073 -0.582458
v -0.274444 -0.282843 -0.662567
v -0.324105 -0.369552 -0.782458
v -0.382683 -0.400000 -0.923880
v -0.441262 -0.369552 -1.065301
v -0.490923 -0.282843 -1.185192
v -0.524105 -0.153073 -1.265301
v -0.535757 -0.000000 -1.293431
v -0.273126 0.000000 -1.373099
v -0.267186 0.153073 -1.343236
v -0.250270 0.282843 -1.258193
v -0.224953 0.369552 -1.130917
v -0.195090 0.400000 -0.980785
v -0.165227 0.369552 -0.830653
v -0.139910 0.282843 -0.703377
v -0.122994 0.153073 -0.618334
v -0.117054 0.000000 -0.588471
v -0.122994 -0.153073 -0.618334
v -0.139910 -0.282843 -0.703377
v -0.165227 -0.369552 -0.830653
v -0.195090 -0.400000 -0.980785
v -0.224953 -0.369552 -1.130917
v -0.250270 -0.282843 -1.258193
v -0.267186 -0.153073 -1.343236
v -0.273126 -0.000000 -1.373099
v -0.000000 0.000000 -1.400000
v -0.000000 0.153073 -1.369552
v -0.000000 0.282843 -1.282843
v -0.000000 0.369552 -1.153073
v -0.000000 0.400000 -1.000000
v -0.000000 0.369552 -0.846927
v -0.000000 0.282843 -0.717157
v -0.000000 0.153073 -0.630448
v -0.000000 0.000000 -0.600000
v -0.000000 -0.153073 -0.630448
v -0.000000 -0.282843 -0.717157
v -0.000000 -0.369552 -0.846927
v -0.000000 -0.400000 -1.000000
v -0.000000 -0.369552 -1.153073
v -0.000000 -0.282843 -1.282843
v -0.000000 -0.153073 -1.369552
v -0.000000 -0.000000 -1.400000
v 0.273126 0.000000 -1.373099
v 0.267186 0.153073 -1.343236
v 0.250270 0.282843 -1.258193
v 0.224953 0.369552 -1.130917
v 0.195090 0.400000 -0.980785
v 0.165227 0.369552 -0.830653
v 0.139910 0.282843 -0.703377
v 0.122994 0.153073 -0.618334
v 0.117054 0.000000 -0.588471
v 0.122994 -0.153073 -0.618334
v 0.139910 -0.282843 -0.703377
v 0.165227 -0.369552 -0.830653
v 0.195090 -0.400000 -0.980785
v 0.224953 -0.369552 -1.130917
v 0.250270 -0.282843 -1.258193
v 0.267186 -0.153073 -1.343236
v 0.273126 -0.000000 -1.373099
v 0.535757 0.000000 -1.293431
v 0.524105 0.153073 -1.265301
v 0.490923 0.282843 -1.185192
v 0.441262 0.369552 -1.065301
v 0.382683 0.400000 -0.923880
v 0.324105 0.369552 -0.782458
v 0.274444 0.282843 -0.662567
v 0.241262 0.153073 -0.582458
v 0.229610 0.000000 -0.554328
v 0.241262 -0.153073 -0.582458
v 0.274444 -0.282843 -0.662567
v 0.324105 -0.369552 -0.782458
v 0.382683 -0.400000 -0.923880
v 0.441262 -0.369552 -1.065301
v 0.490923 -0.282843 -1.185192
v 0.524105 -0.153073 -1.265301
v 0.535757 -0.000000 -1.293431
v 0.777798 0.000000 -1.164057
v 0.760882 0.153073 -1.138741
v 0.712709 0.282843 -1.066645
v 0.640613 0.369552 -0.958745
v 0.555570 0.400000 -0.831470
v 0.470527 0.369552 -0.704194
v 0.398431 0.282843 -0.596294
v 0.350258 0.153073 -0.524199
v 0.333342 0.000000 -0.498882
v 0.350258 -0.153073 -0.524199
v 0.398431 -0.282843 -0.596294
v 0.470527 -0.369552 -0.704194
v 0.555570 -0.400000 -0.831470
v 0.640613 -0.369552 -0.958745
v 0.712709 -0.282843 -1.066645
v 0.760882 -0.153073 -1.138741
v 0.777798 -0.000000 -1.164057
v 0.989949 0.000000 -0.989949
v 0.968419 0.153073 -0.968419
v 0.907107 0.282843 -0.907107
v 0.815346 0.369552 -0.815346
v 0.707107 0.400000 -0.707107
v 0.598868 0.369552 -0.598868
v 0.507107 0.282843 -0.507107
v 0.445794 0.153073 -0.445794
v 0.424264 0.000000 -0.424264
v 0.445794 -0.153073 -0.445794
v 0.507107 -0.282843 -0.507107
v 0.598868 -0.369552 -0.598868
v 0.707107 -0.400000 -0.707107
v 0.815346 -0.369552 -0.815346
v 0.907107 -0.282843 -0.907107
v 0.968419 -0.153073 -0.968419
v 0.989949 -0.000000 -0.989949
v 1.164057 0.000000 -0.777798
v 1.138741 0.153073 -0.760882
v 1.066645 0.282843 -0.712709
v 0.958745 0.369552 -0.640613
v 0.831470 0.400000 -0.555570
v 0.704194 0.369552 -0.470527
v 0.596294 0.282843 -0.398431
v 0.524199 0.153073 -0.350258
v 0.498882 0.000000 -0.333342
v 0.524199 -0.153073 -0.350258
v 0.596294 -0.282843 -0.398431
v 0.704194 -0.369552 -0.470527
v 0.831470 -0.400000 -0.555570
v 0.958745 -0.369552 -0.640613
v 1.066645 -0.282843 -0.712709
v 1.138741 -0.153073 -0.760882
v 1.164057 -0.000000 -0.777798
v 1.293431 0.000000 -0.535757
v 1.265301 0.153073 -0.524105
v 1.185192 0.282843 -0.490923
v 1.065301 0.369552 -0.441262
v 0.923880 0.400000 -0.382683
v 0.782458 0.369552 -0.324105
v 0.662567 0.282843 -0.274444
v 0.582458 0.153073 -0.241262
v 0.554328 0.000000 -0.229610
v 0.582458 -0.153073 -0.241262
v 0.662567 -0.282843 -0.274444
v 0.782458 -0.369552 -0.324105
v 0.923880 -0.400000 -0.382683
v 1.065301 -0.369552 -0.441262
v 1.185192 -0.282843 -0.490923
v 1.265301 -0.153073 -0.524105
v 1.293431 -0.000000 -0.535757
v 1.373099 0.000000 -0.273126
v 1.343236 0.153073 -0.267186
v 1.258193 0.282843 -0.250270
v 1.130917 0.369552 -0.224953
v 0.980785 0.400000 -0.195090
v 0.830653 0.369552 -0.165227
v 0.703377 0.282843 -0.139910
v 0.618334 0.153073 -0.122994
v 0.588471 0.000000 -0.117054
v 0.618334 -0.153073 -0.122994
v 0.703377 -0.282843 -0.139910
v 0.830653 -0.369552 -0.165227
v 0.980785 -0.400000 -0.195090
v 1.130917 -0.369552 -0.224953
v 1.258193 -0.282843 -0.250270
v 1.343236 -0.153073 -0.267186
v 1.373099 -0.000000 -0.273126
v 1.400000 0.000000 -0.000000
v 1.369552 0.153073 -0.000000
v 1.282843 0.282843 -0.000000
v 1.153073 0.369552 -0.000000
v 1.000000 0.400000 -0.000000
v 0.846927 0.369552 -0.000000
v 0.717157 0.282843 -0.000000
v 0.630448 0.153073 -0.000000
v 0.600000 0.000000 -0.000000
v 0.630448 -0.153073 -0.000000
v 0.717157 -0.282843 -0.000000
v 0.846927 -0.369552 -0.000000
v 1.000000 -0.400000 -0.000000
v 1.153073 -0.369552 -0.000000
v 1.282843 -0.282843 -0.000000
v 1.369552 -0.153073 -0.000000
v 1.400000 -0.000000 -0.000000
vt 0.000000 0.000000
vt 0.000000 0.062500
vt 0.000000 0.125000
vt 0.000000 0.187500
vt 0.000000 0.250000
vt 0.000000 0.312500
vt 0.000000 0.375000
vt 0.000000 0.437500
vt 0.000000 0.500000
vt 0.000000 0.562500
vt 0.000000 0.625000
vt 0.000000 0.687500
vt 0.000000 0.750000
vt 0.000000 0.812500
vt 0.000000 0.875000
vt 0.000000 0.937500
vt 0.000000 1.000000
vt 0.031250 0.000000
vt 0.031250 0.062500
vt 0.031250 0.125000
vt 0.031250 0.187500
vt 0.031250 0.250000
vt 0.031250 0.312500
vt 0.031250 0.375000
vt 0.031250 0.437500
vt 0.031250 0.500000
vt 0.031250 0.562500
vt 0.031250 0.625000
vt 0.031250 0.687500
vt 0.031250 0.750000
vt 0.031250 0.812500
vt 0.031250 0.875000
vt 0.031250 0.937500
vt 0.031250 1.000000
vt 0.062500 0.000000
vt 0.062500 0.062500
vt 0.062500 0.125000
vt 0.062500 0.187500
vt 0.062500 0.250000
vt 0.062500 0.312500
vt 0.062500 0.375000
vt 0.062500 0.437500
vt 0.062500 0.500000
vt 0.062500 0.562500
vt 0.062500 0.625000
vt 0.062500 0.687500
vt 0.062500 0.750000
vt 0.062500 0.812500
vt 0.062500 0.875000
vt 0.062500 0.937500
vt 0.062500 1.000000
vt 0.093750 0.000000
vt 0.093750 0.062500
vt 0.093750 0.125000
vt 0.093750 0.187500
vt 0.093750 0.250000
vt 0.093750 0.312500
vt 0.093750 0.375000
vt 0.093750 0.437500
vt 0.093750 0.500000
vt 0.093750 0.562500
vt 0.093750 0.625000
vt 0.093750 0.687500
vt 0.093750 0.750000
vt 0.093750 0.812500
vt 0.093750 0.875000
vt 0.093750 0.937500
vt 0.093750 1.000000
vt 0.125000 0.000000
vt 0.125000 0.062500
vt 0.125000 0.125000
vt 0.125000 0.187500
vt 0.125000 0.250000
vt 0.125000 0.312500
vt 0.125000 0.375000
vt 0.125000 0.437500
vt 0.125000 0.500000
vt 0.125000 0.562500
vt 0.125000 0.625000
vt 0.125000 0.687500
vt 0.125000 0.750000
vt 0.125000 0.812500
vt 0.125000 0.875000
vt 0.125000 0.937500
vt 0.125000 1.000000
vt 0.156250 0.000000
vt 0.156250 0.062500
vt 0.156250 0.125000
vt 0.156250 0.187500
vt 0.156250 0.250000
vt 0.156250 0.312500
vt 0.156250 0.375000
vt 0.156250 0.437500
vt 0.156250 0.500000
vt 0.156250 0.562500
vt 0.156250 0.625000
vt 0.156250 0.687500
vt 0.156250 0.750000
vt 0.156250 0.812500
vt 0.156250 0.875000
vt 0.156250 0.937500
vt 0.156250 1.000000
vt 0.187500 0.000000
vt 0.187500 0.062500
vt 0.187500 0.125000
vt 0.187500 0.187500
vt 0.187500 0.250000
vt 0.187500 0.312500
vt 0.187500 0.375000
vt 0.187500 0.437500
vt 0.187500 0.500000
vt 0.187500 0.562500
vt 0.187500 0.625000
vt 0.187500 0.687500
vt 0.187500 0.750000
vt 0.187500 0.812500
vt 0.187500 0.875000
vt 0.187500 0.937500
vt 0.187500 1.000000
vt 0.218750 0.000000
vt 0.218750 0.062500
vt 0.218750 0.125000
vt 0.218750 0.187500
vt 0.218750 0.250000
vt 0.218750 0.312500
vt 0.218750 0.375000
vt 0.218750 0.437500
vt 0.218750 0.500000
vt 0.218750 0.562500
vt 0.218750 0.625000
vt 0.218750 0.687500
vt 0.218750 0.750000
vt 0.218750 0.812500
vt 0.218750 0.875000
vt 0.218750 0.937500
vt 0.218750 1.000000
vt 0.250000 0.000000
vt 0.250000 0.062500
vt 0.250000 0.125000
vt 0.250000 0.187500
vt 0.250000 0.250000
vt 0.250000 0.312500
vt 0.250000 0.375000
vt 0.250000 0.437500
vt 0.250000 0.500000
vt 0.250000 0.562500
vt 0.250000 0.625000
vt 0.250000 0.687500
vt 0.250000 0.750000
vt 0.250000 0.812500
vt 0.250000 0.875000
vt 0.250000 0.937500
vt 0.250000 1.000000
vt 0.281250 0.000000
vt 0.281250 0.062500
vt 0.281250 0.125000
vt 0.281250 0.187500
vt 0.281250 0.250000
vt 0.281250 0.312500
vt 0.281250 0.375000
vt 0.281250 0.437500
vt 0.281250 0.500000
vt 0.281250 0.562500
vt 0.281250 0.625000
vt 0.281250 0.687500
vt 0.281250 0.750000
vt 0.281250 0.812500
vt 0.281250 0.875000
vt 0.281250 0.937500
vt 0.281250 1.000000
vt 0.312500 0.000000
vt 0.312500 0.062500
vt 0.312500 0.125000
vt 0.312500 0.187500
vt 0.312500 0.250000
vt 0.312500 0.312500
vt 0.312500 0.375000
vt 0.312500 0.437500
vt 0.312500 0.500000
vt 0.312500 0.562500
vt 0.312500 0.625000
vt 0.312500 0.687500
vt 0.312500 0.750000
vt 0.312500 0.812500
vt 0.312500 0.875000
vt 0.312500 0.937500
vt 0.312500 1.000000
vt 0.343750 0.000000
vt 0.343750 0.062500
vt 0.343750 0.125000
vt 0.343750 0.187500
vt 0.343750 0.250000
vt 0.343750 0.312500
vt 0.343750 0.375000
vt 0.343750 0.437500
vt 0.343750 0.500000
vt 0.343750 0.562500
vt 0.343750 0.625000
vt 0.343750 0.687500
vt 0.343750 0.750000
vt 0.343750 0.812500
vt 0.343750 0.875000
vt 0.343750 0.937500
vt 0.343750 1.000000
vt 0.375000 0.000000
vt 0.375000 0.062500
vt 0.375000 0.125000
vt 0.375000 0.187500
vt 0.375000 0.250000
vt 0.375000 0.312500
vt 0.375000 0.375000
vt 0.375000 0.437500
vt 0.375000 0.500000
vt 0.375000 0.562500
vt 0.375000 0.625000
vt 0.375000 0.687500
vt 0.375000 0.750000
vt 0.375000 0.812500
vt 0.375000 0.875000
vt 0.375000 0.937500
vt 0.375000 1.000000
vt 0.406250 0.000000
vt 0.406250 0.062500
vt 0.406250 0.125000
vt 0.406250 0.187500
vt 0.406250 0.250000
vt 0.406250 0.312500
vt 0.406250 0.375000
vt 0.406250 0.437500
vt 0.406250 0.500000
vt 0.406250 0.562500
vt 0.406250 0.625000
vt 0.406250 0.687500
vt 0.406250 0.750000
vt 0.406250 0.812500
vt 0.406250 0.875000
vt 0.406250 0.937500
vt 0.406250 1.000000
vt 0.437500 0.000000
vt 0.437500 0.062500
vt 0.437500 0.125000
vt 0.437500 0.187500
vt 0.437500 0.250000
vt 0.437500 0.312500
vt 0.437500 0.375000
vt 0.437500 0.437500
vt 0.437500 0.500000
vt 0.437500 0.562500
vt 0.437500 0.625000
vt 0.437500 0.687500
vt 0.437500 0.750000
vt 0.437500 0.812500
vt 0.437500 0.875000
vt 0.437500 0.937500
vt 0.437500 1.000000
vt 0.468750 0.000000
vt 0.468750 0.062500
vt 0.468750 0.125000
vt 0.468750 0.187500
vt 0.468750 0.250000
vt 0.468750 0.312500
vt 0.468750 0.375000
vt 0.468750 0.437500
vt 0.468750 0.500000
vt 0.468750 0.562500
vt 0.468750 0.625000
vt 0.468750 0.687500
vt 0.468750 0.750000
vt 0.468750 0.812500
vt 0.468750 0.875000
vt 0.468750 0.937500
vt 0.468750 1.000000
vt 0.500000 0.000000
vt 0.500000 0.062500
vt 0.500000 0.125000
vt 0.500000 0.187500
vt 0.500000 0.250000
vt 0.500000 0.312500
vt 0.500000 0.375000
vt 0.500000 0.437500
vt 0.500000 0.500000
vt 0.500000 0.562500
vt 0.500000 0.625000
vt 0.500000 0.687500
vt 0.500000 0.750000
vt 0.500000 0.812500
vt 0.500000 0.875000
vt 0.500000 0.937500
vt 0.500000 1.000000
vt 0.531250 0.000000
vt 0.531250 0.062500
vt 0.531250 0.125000
vt 0.531250 0.187500
vt 0.531250 0.250000
vt 0.531250 0.312500
vt 0.531250 0.375000
vt 0.531250 0.437500
vt 0.531250 0.500000
vt 0.531250 0.562500
vt 0.531250 0.625000
vt 0.531250 0.687500
vt 0.531250 0.750000
vt 0.531250 0.812500
vt 0.531250 0.875000
vt 0.531250 0.937500
vt 0.531250 1.000000
vt 0.562500 0.000000
vt 0.562500 0.062500
vt 0.562500 0.125000
vt 0.562500 0.187500
vt 0.562500 0.250000
vt 0.562500 0.312500
vt 0.562500 0.375000
vt 0.562500 0.437500
vt 0.562500 0.500000
vt 0.562500 0.562500
vt 0.562500 0.625000
vt 0.562500 0.687500
vt 0.562500 0.750000
vt 0.562500 0.812500
vt 0.562500 0.875000
vt 0.562500 0.937500
vt 0.562500 1.000000
vt 0.593750 0.000000
vt 0.593750 0.062500
vt 0.593750 0.125000
vt 0.593750 0.187500
vt 0.593750 0.250000
vt 0.593750 0.312500
vt 0.593750 0.375000
vt 0.593750 0.437500
vt 0.593750 0.500000
vt 0.593750 0.562500
vt 0.593750 0.625000
vt 0.593750 0.687500
vt 0.593750 0.750000
vt 0.593750 0.812500
vt 0.593750 0.875000
vt 0.593750 0.937500
vt 0.593750 1.000000
vt 0.625000 0.000000
vt 0.625000 0.062500
vt 0.625000 0.125000
vt 0.625000 0.187500
vt 0.625000 0.250000
vt 0.625000 0.312500
vt 0.625000 0.375000
vt 0.625000 0.437500
vt 0.625000 0.500000
vt 0.625000 0.562500
vt 0.625000 0.625000
vt 0.625000 0.687500
vt 0.625000 0.750000
vt 0.625000 0.812500
vt 0.625000 0.875000
vt 0.625000 0.937500
vt 0.625000 1.000000
vt 0.656250 0.000000
vt 0.656250 0.062500
vt 0.656250 0.125000
vt 0.656250 0.187500
vt 0.656250 0.250000
vt 0.656250 0.312500
vt 0.656250 0.375000
vt 0.656250 0.437500
vt 0.656250 0.500000
vt 0.656250 0.562500
vt 0.656250 0.625000
vt 0.656250 0.687500
vt 0.656250 0.750000
vt 0.656250 0.812500
vt 0.656250 0.875000
vt 0.656250 0.937500
vt 0.656250 1.000000
vt 0.687500 0.000000
vt 0.687500 0.062500
vt 0.687500 0.125000
vt 0.687500 0.187500
vt 0.687500 0.250000
vt 0.687500 0.312500
vt 0.687500 0.375000
vt 0.687500 0.437500
vt 0.687500 0.500000
vt 0.687500 0.562500
vt 0.687500 0.625000
vt 0.687500 0.687500
vt 0.687500 0.750000
vt 0.687500 0.812500
vt 0.687500 0.875000
vt 0.687500 0.937500
vt 0.687500 1.000000
vt 0.718750 0.000000
vt 0.718750 0.062500
vt 0.718750 0.125000
vt 0.718750 0.187500
vt 0.718750 0.250000
vt 0.718750 0.312500
vt 0.718750 0.375000
vt 0.718750 0.437500
vt 0.718750 0.500000
vt 0.718750 0.562500
vt 0.718750 0.625000
vt 0.718750 0.687500
vt 0.718750 0.750000
vt 0.718750 0.812500
vt 0.718750 0.875000
vt 0.718750 0.937500
vt 0.718750 1.000000
vt 0.750000 0.000000
vt 0.750000 0.062500
vt 0.750000 0.125000
vt 0.750000 0.187500
vt 0.750000 0.250000
vt 0.750000 0.312500
vt 0.750000 0.375000
vt 0.750000 0.437500
vt 0.750000 0.500000
vt 0.750000 0.562500
vt 0.750000 0.625000
vt 0.750000 0.687500
vt 0.750000 0.750000
vt 0.750000 0.812500
vt 0.750000 0.875000
vt 0.750000 0.937500
vt 0.750000 1.000000
vt 0.781250 0.000000
vt 0.781250 0.062500
vt 0.781250 0.125000
vt 0.781250 0.187500
vt 0.781250 0.250000
vt 0.781250 0.312500
vt 0.781250 0.375000
vt 0.781250 0.437500
vt 0.781250 0.500000
vt 0.781250 0.562500
vt 0.781250 0.625000
vt 0.781250 0.687500
vt 0.781250 0.750000
vt 0.781250 0.812500
vt 0.781250 0.875000
vt 0.781250 0.937500
vt 0.781250 1.000000
vt 0.812500 0.000000
vt 0.812500 0.062500
vt 0.812500 0.125000
vt 0.812500 0.187500
vt 0.812500 0.250000
vt 0.812500 0.312500
vt 0.812500 0.375000
vt 0.812500 0.437500
vt 0.812500 0.500000
vt 0.812500 0.562500
vt 0.812500 0.625000
vt 0.812500 0.687500
vt 0.812500 0.750000
vt 0.812500 0.812500
vt 0.812500 0.875000
vt 0.812500 0.937500
vt 0.812500 1.000000
vt 0.843750 0.000000
vt 0.843750 0.062500
vt 0.843750 0.125000
vt 0.843750 0.187500
vt 0.843750 0.250000
vt 0.843750 0.312500
vt 0.843750 0.375000
vt 0.843750 0.437500
vt 0.843750 0.500000
vt 0.843750 0.562500
vt 0.843750 0.625000
vt 0.843750 0.687500
vt 0.843750 0.750000
vt 0.843750 0.812500
vt 0.843750 0.875000
vt 0.843750 0.937500
vt 0.843750 1.000000
vt 0.875000 0.000000
vt 0.875000 0.062500
vt 0.875000 0.125000
vt 0.875000 0.187500
vt 0.875000 0.250000
vt 0.875000 0.312500
vt 0.875000 0.375000
vt 0.875000 0.437500
vt 0.875000 0.500000
vt 0.875000 0.562500
vt 0.875000 0.625000
vt 0.875000 0.687500
vt 0.875000 0.750000
vt 0.875000 0.812500
vt 0.875000 0.875000
vt 0.875000 0.937500
vt 0.875000 1.000000
vt 0.906250 0.000000
vt 0.906250 0.062500
vt 0.906250 0.125000
vt 0.906250 0.187500
vt 0.906250 0.250000
vt 0.906250 0.312500
vt 0.906250 0.375000
vt 0.906250 0.437500
vt 0.906250 0.500000
vt 0.906250 0.562500
vt 0.906250 0.625000
vt 0.906250 0.687500
vt 0.906250 0.750000
vt 0.906250 0.812500
vt 0.906250 0.875000
vt 0.906250 0.937500
vt 0.906250 1.000000
vt 0.937500 0.000000
vt 0.937500 0.062500
vt 0.937500 0.125000
vt 0.937500 0.187500
vt 0.937500 0.250000
vt 0.937500 0.312500
vt 0.937500 0.375000
vt 0.937500 0.437500
vt 0.937500 0.500000
vt 0.937500 0.562500
vt 0.937500 0.625000
vt 0.937500 0.687500
vt 0.937500 0.750000
vt 0.937500 0.812500
vt 0.937500 0.875000
vt 0.937500 0.937500
vt 0.937500 1.000000
vt 0.968750 0.000000
vt 0.968750 0.062500
vt 0.968750 0.125000
vt 0.968750 0.187500
vt 0.968750 0.250000
vt 0.968750 0.312500
vt 0.968750 0.375000
vt 0.968750 0.437500
vt 0.968750 0.500000
vt 0.968750 0.562500
vt 0.968750 0.625000
vt 0.968750 0.687500
vt 0.968750 0.750000
vt 0.968750 0.812500
vt 0.968750 0.875000
vt 0.968750 0.937500
vt 0.968750 1.000000
vt 1.000000 0.000000
vt 1.000000 0.062500
vt 1.000000 0.125000
vt 1.000000 0.187500
vt 1.000000 0.250000
vt 1.000000 0.312500
vt 1.000000 0.375000
vt 1.000000 0.437500
vt 1.000000 0.500000
vt 1.000000 0.562500
vt 1.000000 0.625000
vt 1.000000 0.687500
vt 1.000000 0.750000
vt 1.000000 0.812500
vt 1.000000 0.875000
vt 1.000000 0.937500
vt 1.000000 1.000000
vn 1.000000 0.000000 0.000000
vn 0.923880 0.382683 0.000000
vn 0.707107 0.707107 0.000000
vn 0.382683 0.923880 0.000000
vn 0.000000 1.000000 0.000000
vn -0.382683 0.923880 -0.000000
vn -0.707107 0.707107 -0.000000
vn -0.923880 0.382683 -0.000000
vn -1.000000 0.000000 -0.000000
vn -0.923880 -0.382683 -0.000000
vn -0.707107 -0.707107 -0.000000
vn -0.382683 -0.923880 -0.000000
vn -0.000000 -1.000000 -0.000000
vn 0.382683 -0.923880 0.000000
vn 0.707107 -0.707107 0.000000
vn 0.923880 -0.382683 0.000000
vn 1.000000 -0.000000 0.000000
vn 0.980785 0.000000 0.195090
vn 0.906127 0.382683 0.180240
vn 0.693520 0.707107 0.137950
vn 0.375330 0.923880 0.074658
vn 0.000000 1.000000 0.000000
vn -0.375330 0.923880 -0.074658
vn -0.693520 0.707107 -0.137950
vn -0.906127 0.382683 -0.180240
vn -0.980785 0.000000 -0.195090
vn -0.906127 -0.382683 -0.180240
vn -0.693520 -0.707107 -0.137950
vn -0.375330 -0.923880 -0.074658
vn -0.000000 -1.000000 -0.000000
vn 0.375330 -0.923880 0.074658
vn 0.693520 -0.707107 0.137950
vn 0.906127 -0.382683 0.180240
vn 0.980785 -0.000000 0.195090
vn 0.923880 0.000000 0.382683
vn 0.853553 0.382683 0.353553
vn 0.653281 0.707107 0.270598
vn 0.353553 0.923880 0.146447
vn 0.000000 1.000000 0.000000
vn -0.353553 0.923880 -0.146447
vn -0.653281 0.707107 -0.270598
vn -0.853553 0.382683 -0.353553
vn -0.923880 0.000000 -0.382683
vn -0.853553 -0.382683 -0.353553
vn -0.653281 -0.707107 -0.270598
vn -0.353553 -0.923880 -0.146447
vn -0.000000 -1.000000 -0.000000
vn 0.353553 -0.923880 0.146447
vn 0.653281 -0.707107 0.270598
vn 0.853553 -0.382683 0.353553
vn 0.923880 -0.000000 0.382683
vn 0.831470 0.000000 0.555570
vn 0.768178 0.382683 0.513280
vn 0.587938 0.707107 0.392847
vn 0.318190 0.923880 0.212608
vn 0.000000 1.000000 0.000000
vn -0.318190 0.923880 -0.212608
vn -0.587938 0.707107 -0.392847
vn -0.768178 0.382683 -0.513280
vn -0.831470 0.000000 -0.555570
vn -0.768178 -0.382683 -0.513280
vn -0.587938 -0.707107 -0.392847
vn -0.318190 -0.923880 -0.212608
vn -0.000000 -1.000000 -0.000000
vn 0.318190 -0.923880 0.212608
vn 0.587938 -0.707107 0.392847
vn 0.768178 -0.382683 0.513280
vn 0.831470 -0.000000 0.555570
vn 0.707107 0.000000 0.707107
vn 0.653281 0.382683 0.653281
vn 0.500000 0.707107 0.500000
vn 0.270598 0.923880 0.270598
vn 0.000000 1.000000 0.000000
vn -0.270598 0.923880 -0.270598
vn -0.500000 0.707107 -0.500000
vn -0.653281 0.382683 -0.653281
vn -0.707107 0.000000 -0.707107
vn -0.653281 -0.382683 -0.653281
vn -0.500000 -0.707107 -0.500000
vn -0.270598 -0.923880 -0.270598
vn -0.000000 -1.000000 -0.000000
vn 0.270598 -0.923880 0.270598
vn 0.500000 -0.707107 0.500000
vn 0.653281 -0.382683 0.653281
vn 0.707107 -0.000000 0.707107
vn 0.555570 0.000000 0.831470
vn 0.513280 0.382683 0.768178
vn 0.392847 0.707107 0.587938
vn 0.212608 0.923880 0.318190
vn 0.000000 1.000000 0.000000
vn -0.212608 0.923880 -0.318190
vn -0.392847 0.707107 -0.587938
vn -0.513280 0.382683 -0.768178
vn -0.555570 0.000000 -0.831470
vn -0.513280 -0.382683 -0.768178
vn -0.392847 -0.707107 -0.587938
vn -0.212608 -0.923880 -0.318190
vn -0.000000 -1.000000 -0.000000
vn 0.212608 -0.923880 0.318190
vn 0.392847 -0.707107 0.587938
vn 0.513280 -0.382683 0.768178
vn 0.555570 -0.000000 0.831470
vn 0.382683 0.000000 0.923880
vn 0.353553 0.382683 0.853553
vn 0.270598 0.707107 0.653281
vn 0.146447 0.923880 0.353553
vn 0.000000 1.000000 0.000000
vn -0.146447 0.923880 -0.353553
vn -0.270598 0.707107 -0.653281
vn -0.353553 0.382683 -0.853553
vn -0.382683 0.000000 -0.923880
vn -0.353553 -0.382683 -0.853553
vn -0.270598 -0.707107 -0.653281
vn -0.146447 -0.923880 -0.353553
vn -0.000000 -1.000000 -0.000000
vn 0.146447 -0.923880 0.353553
vn 0.270598 -0.707107 0.653281
vn 0.353553 -0.382683 0.853553
vn 0.382683 -0.000000 0.923880
vn 0.195090 0.000000 0.980785
vn 0.180240 0.382683 0.906127
vn 0.137950 0.707107 0.693520
vn 0.074658 0.923880 0.375330
vn 0.000000 1.000000 0.000000
vn -0.074658 0.923880 -0.375330
vn -0.137950 0.707107 -0.693520
vn -0.180240 0.382683 -0.906127
vn -0.195090 0.000000 -0.980785
vn -0.180240 -0.382683 -0.906127
vn -0.137950 -0.707107 -0.693520
vn -0.074658 -0.923880 -0.375330
vn -0.000000 -1.000000 -0.000000
vn 0.074658 -0.923880 0.375330
vn 0.137950 -0.707107 0.693520
vn 0.180240 -0.382683 0.906127
vn 0.195090 -0.000000 0.980785
vn 0.000000 0.000000 1.000000
vn 0.000000 0.382683 0.923880
vn 0.000000 0.707107 0.707107
vn 0.000000 0.923880 0.382683
vn 0.000000 1.000000 0.000000
vn -0.000000 0.923880 -0.382683
vn -0.000000 0.707107 -0.707107
vn -0.000000 0.382683 -0.923880
vn -0.000000 0.000000 -1.000000
vn -0.000000 -0.382683 -0.923880
vn -0.000000 -0.707107 -0.707107
vn -0.000000 -0.923880 -0.382683
vn -0.000000 -1.000000 -0.000000
vn 0.000000 -0.923880 0.382683
vn 0.000000 -0.707107 0.707107
vn 0.000000 -0.382683 0.923880
vn 0.000000 -0.000000 1.000000
vn -0.195090 0.000000 0.980785
vn -0.180240 0.382683 0.906127
vn -0.137950 0.707107 0.693520
vn -0.074658 0.923880 0.375330
vn -0.000000 1.000000 0.000000
vn 0.074658 0.923880 -0.375330
vn 0.137950 0.707107 -0.693520
vn 0.180240 0.382683 -0.906127
vn 0.195090 0.000000 -0.980785
vn 0.180240 -0.382683 -0.906127
vn 0.137950 -0.707107 -0.693520
vn 0.074658 -0.923880 -0.375330
vn 0.000000 -1.000000 -0.000000
vn -0.074658 -0.923880 0.375330
vn -0.137950 -0.707107 0.693520
vn -0.180240 -0.382683 0.906127
vn -0.195090 -0.000000 0.980785
vn -0.382683 0.000000 0.923880
vn -0.353553 0.382683 0.853553
vn -0.270598 0.707107 0.653281
vn -0.146447 0.923880 0.353553
vn -0.000000 1.000000 0.000000
vn 0.146447 0.923880 -0.353553
vn 0.270598 0.707107 -0.653281
vn 0.353553 0.382683 -0.853553
vn 0.382683 0.000000 -0.923880
vn 0.353553 -0.382683 -0.853553
vn 0.270598 -0.707107 -0.653281
vn 0.146447 -0.923880 -0.353553
vn 0.000000 -1.000000 -0.000000
vn -0.146447 -0.923880 0.353553
vn -0.270598 -0.707107 0.653281
vn -0.353553 -0.382683 0.853553
vn -0.382683 -0.000000 0.923880
vn -0.555570 0.000000 0.831470
vn -0.513280 0.382683 0.768178
vn -0.392847 0.707107 0.587938
vn -0.212608 0.923880 0.318190
vn -0.000000 1.000000 0.000000
vn 0.212608 0.923880 -0.318190
vn 0.392847 0.707107 -0.587938
vn 0.513280 0.382683 -0.768178
vn 0.555570 0.000000 -0.831470
vn 0.513280 -0.382683 -0.768178
vn 0.392847 -0.707107 -0.587938
vn 0.212608 -0.923880 -0.318190
vn 0.000000 -1.000000 -0.000000
vn -0.212608 -0.923880 0.318190
vn -0.392847 -0.707107 0.587938
vn -0.513280 -0.382683 0.768178
vn -0.555570 -0.000000 0.831470
vn -0.707107 0.000000 0.707107
vn -0.653281 0.382683 0.653281
vn -0.500000 0.707107 0.500000
vn -0.270598 0.923880 0.270598
vn -0.000000 1.000000 0.000000
vn 0.270598 0.923880 -0.270598
vn 0.500000 0.707107 -0.500000
vn 0.653281 0.382683 -0.653281
vn 0.707107 0.000000 -0.707107
vn 0.653281 -0.382683 -0.653281
vn 0.500000 -0.707107 -0.500000
vn 0.270598 -0.923880 -0.270598
vn 0.000000 -1.000000 -0.000000
vn -0.270598 -0.923880 0.270598
vn -0.500000 -0.707107 0.500000
vn -0.653281 -0.382683 0.653281
vn -0.707107 -0.000000 0.707107
vn -0.831470 0.000000 0.555570
vn -0.768178 0.382683 0.513280
vn -0.587938 0.707107 0.392847
vn -0.318190 0.923880 0.212608
vn -0.000000 1.000000 0.000000
vn 0.318190 0.923880 -0.212608
vn 0.587938 0.707107 -0.392847
vn 0.768178 0.382683 -0.513280
vn 0.831470 0.000000 -0.555570
vn 0.768178 -0.382683 -0.513280
vn 0.587938 -0.707107 -0.392847
vn 0.318190 -0.923880 -0.212608
vn 0.000000 -1.000000 -0.000000
vn -0.318190 -0.923880 0.212608
vn -0.587938 -0.707107 0.392847
vn -0.768178 -0.382683 0.513280
vn -0.831470 -0.000000 0.555570
vn -0.923880 0.000000 0.382683
vn -0.853553 0.382683 0.353553
vn -0.653281 0.707107 0.270598
vn -0.353553 0.923880 0.146447
vn -0.000000 1.000000 0.000000
vn 0.353553 0.923880 -0.146447
vn 0.653281 0.707107 -0.270598
vn 0.853553 0.382683 -0.353553
vn 0.923880 0.000000 -0.382683
vn 0.853553 -0.382683 -0.353553
vn 0.653281 -0.707107 -0.270598
vn 0.353553 -0.923880 -0.146447
vn 0.000000 -1.000000 -0.000000
vn -0.353553 -0.923880 0.146447
vn -0.653281 -0.707107 0.270598
vn -0.853553 -0.382683 0.353553
vn -0.923880 -0.000000 0.382683
vn -0.980785 0.000000 0.195090
vn -0.906127 0.382683 0.180240
vn -0.693520 0.707107 0.137950
vn -0.375330 0.923880 0.074658
vn -0.000000 1.000000 0.000000
vn 0.375330 0.923880 -0.074658
vn 0.693520 0.707107 -0.137950
vn 0.906127 0.382683 -0.180240
vn 0.980785 0.000000 -0.195090
vn 0.906127 -0.382683 -0.180240
vn 0.693520 -0.707107 -0.137950
vn 0.375330 -0.923880 -0.074658
vn 0.000000 -1.000000 -0.000000
vn -0.375330 -0.923880 0.074658
vn -0.693520 -0.707107 0.137950
vn -0.906127 -0.382683 0.180240
vn -0.980785 -0.000000 0.195090
vn -1.000000 0.000000 0.000000
vn -0.923880 0.382683 0.000000
vn -0.707107 0.707107 0.000000
vn -0.382683 0.923880 0.000000
vn -0.000000 1.000000 0.000000
vn 0.382683 0.923880 -0.000000
vn 0.707107 0.707107 -0.000000
vn 0.923880 0.382683 -0.000000
vn 1.000000 0.000000 -0.000000
vn 0.923880 -0.382683 -0.000000
vn 0.707107 -0.707107 -0.000000
vn 0.382683 -0.923880 -0.000000
vn 0.000000 -1.000000 -0.000000
vn -0.382683 -0.923880 0.000000
vn -0.707107 -0.707107 0.000000
vn -0.923880 -0.382683 0.000000
vn -1.000000 -0.000000 0.000000
vn -0.980785 0.000000 -0.195090
vn -0.906127 0.382683 -0.180240
vn -0.693520 0.707107 -0.137950
vn -0.375330 0.923880 -0.074658
vn -0.000000 1.000000 -0.000000
vn 0.375330 0.923880 0.074658
vn 0.693520 0.707107 0.137950
vn 0.906127 0.382683 0.180240
vn 0.980785 0.000000 0.195090
vn 0.906127 -0.382683 0.180240
vn 0.693520 -0.707107 0.137950
vn 0.375330 -0.923880 0.074658
vn 0.000000 -1.000000 0.000000
vn -0.375330 -0.923880 -0.074658
vn -0.693520 -0.707107 -0.137950
vn -0.906127 -0.382683 -0.180240
vn -0.980785 -0.000000 -0.195090
vn -0.923880 0.000000 -0.382683
vn -0.853553 0.382683 -0.353553
vn -0.653281 0.707107 -0.270598
vn -0.353553 0.923880 -0.146447
vn -0.000000 1.000000 -0.000000
vn 0.353553 0.923880 0.146447
vn 0.653281 0.707107 0.270598
vn 0.853553 0.382683 0.353553
vn 0.923880 0.000000 0.382683
vn 0.853553 -0.382683 0.353553
vn 0.653281 -0.707107 0.270598
vn 0.353553 -0.923880 0.146447
vn 0.000000 -1.000000 0.000000
vn -0.353553 -0.923880 -0.146447
vn -0.653281 -0.707107 -0.270598
vn -0.853553 -0.382683 -0.353553
vn -0.923880 -0.000000 -0.382683
vn -0.831470 0.000000 -0.555570
vn -0.768178 0.382683 -0.513280
vn -0.587938 0.707107 -0.392847
vn -0.318190 0.923880 -0.212608
vn -0.000000 1.000000 -0.000000
vn 0.318190 0.923880 0.212608
vn 0.587938 0.707107 0.392847
vn 0.768178 0.382683 0.513280
vn 0.831470 0.000000 0.555570
vn 0.768178 -0.382683 0.513280
vn 0.587938 -0.707107 0.392847
vn 0.318190 -0.923880 0.212608
vn 0.000000 -1.000000 0.000000
vn -0.318190 -0.923880 -0.212608
vn -0.587938 -0.707107 -0.392847
vn -0.768178 -0.382683 -0.513280
vn -0.831470 -0.000000 -0.555570
vn -0.707107 0.000000 -0.707107
vn -0.653281 0.382683 -0.653281
vn -0.500000 0.707107 -0.500000
vn -0.270598 0.923880 -0.270598
vn -0.000000 1.000000 -0.000000
vn 0.270598 0.923880 0.270598
vn 0.500000 0.707107 0.500000
vn 0.653281 0.382683 0.653281
vn 0.707107 0.000000 0.707107
vn 0.653281 -0.382683 0.653281
vn 0.500000 -0.707107 0.500000
vn 0.270598 -0.923880 0.270598
vn 0.000000 -1.000000 0.000000
vn -0.270598 -0.923880 -0.270598
vn -0.500000 -0.707107 -0.500000
vn -0.653281 -0.382683 -0.653281
vn -0.707107 -0.000000 -0.707107
vn -0.555570 0.000000 -0.831470
vn -0.513280 0.382683 -0.768178
vn -0.392847 0.707107 -0.587938
vn -0.212608 0.923880 -0.318190
vn -0.000000 1.000000 -0.000000
vn 0.212608 0.923880 0.318190
vn 0.392847 0.707107 0.587938
vn 0.513280 0.382683 0.768178
vn 0.555570 0.000000 0.831470
vn 0.513280 -0.382683 0.768178
vn 0.392847 -0.707107 0.587938
vn 0.212608 -0.923880 0.318190
vn 0.000000 -1.000000 0.000000
vn -0.212608 -0.923880 -0.318190
vn -0.392847 -0.707107 -0.587938
vn -0.513280 -0.382683 -0.768178
vn -0.555570 -0.000000 -0.831470
vn -0.382683 0.000000 -0.923880
vn -0.353553 0.382683 -0.853553
vn -0.270598 0.707107 -0.653281
vn -0.146447 0.923880 -0.353553
vn -0.000000 1.000000 -0.000000
vn 0.146447 0.923880 0.353553
vn 0.270598 0.707107 0.653281
vn 0.353553 0.382683 0.853553
vn 0.382683 0.000000 0.923880
vn 0.353553 -0.382683 0.853553
vn 0.270598 -0.707107 0.653281
vn 0.146447 -0.923880 0.353553
vn 0.000000 -1.000000 0.000000
vn -0.146447 -0.923880 -0.353553
vn -0.270598 -0.707107 -0.653281
vn -0.353553 -0.382683 -0.853553
vn -0.382683 -0.000000 -0.923880
vn -0.195090 0.000000 -0.980785
vn -0.180240 0.382683 -0.906127
vn -0.137950 0.707107 -0.693520
vn -0.074658 0.923880 -0.375330
vn -0.000000 1.000000 -0.000000
vn 0.074658 0.923880 0.375330
vn 0.137950 0.707107 0.693520
vn 0.180240 0.382683 0.906127
vn 0.195090 0.000000 0.980785
vn 0.180240 -0.382683 0.906127
vn 0.137950 -0.707107 0.693520
vn 0.074658 -0.923880 0.375330
vn 0.000000 -1.000000 0.000000
vn -0.074658 -0.923880 -0.375330
vn -0.137950 -0.707107 -0.693520
vn -0.180240 -0.382683 -0.906127
vn -0.195090 -0.000000 -0.980785
vn -0.000000 0.000000 -1.000000
vn -0.000000 0.382683 -0.923880
vn -0.000000 0.707107 -0.707107
vn -0.000000 0.923880 -0.382683
vn -0.000000 1.000000 -0.000000
vn 0.000000 0.923880 0.382683
vn 0.000000 0.707107 0.707107
vn 0.000000 0.382683 0.923880
vn 0.000000 0.000000 1.000000
vn 0.000000 -0.382683 0.923880
vn 0.000000 -0.707107 0.707107
vn 0.000000 -0.923880 0.382683
vn 0.000000 -1.000000 0.000000
vn -0.000000 -0.923880 -0.382683
vn -0.000000 -0.707107 -0.707107
vn -0.000000 -0.382683 -0.923880
vn -0.000000 -0.000000 -1.000000
vn 0.195090 0.000000 -0.980785
vn 0.180240 0.382683 -0.906127
vn 0.137950 0.707107 -0.693520
vn 0.074658 0.923880 -0.375330
vn 0.000000 1.000000 -0.000000
vn -0.074658 0.923880 0.375330
vn -0.137950 0.707107 0.693520
vn -0.180240 0.382683 0.906127
vn -0.195090 0.000000 0.980785
vn -0.180240 -0.382683 0.906127
vn -0.137950 -0.707107 0.693520
vn -0.074658 -0.923880 0.375330
vn -0.000000 -1.000000 0.000000
vn 0.074658 -0.923880 -0.375330
vn 0.137950 -0.707107 -0.693520
vn 0.180240 -0.382683 -0.906127
vn 0.195090 -0.000000 -0.980785
vn 0.382683 0.000000 -0.923880
vn 0.353553 0.382683 -0.853553
vn 0.270598 0.707107 -0.653281
vn 0.146447 0.923880 -0.353553
vn 0.000000 1.000000 -0.000000
vn -0.146447 0.923880 0.353553
vn -0.270598 0.707107 0.653281
vn -0.353553 0.382683 0.853553
vn -0.382683 0.000000 0.923880
vn -0.353553 -0.382683 0.853553
vn -0.270598 -0.707107 0.653281
vn -0.146447 -0.923880 0.353553
vn -0.000000 -1.000000 0.000000
vn 0.146447 -0.923880 -0.353553
vn 0.270598 -0.707107 -0.653281
vn 0.353553 -0.382683 -0.853553
vn 0.382683 -0.000000 -0.923880
vn 0.555570 0.000000 -0.831470
vn 0.513280 0.382683 -0.768178
vn 0.392847 0.707107 -0.587938
vn 0.212608 0.923880 -0.318190
vn 0.000000 1.000000 -0.000000
vn -0.212608 0.923880 0.318190
vn -0.392847 0.707107 0.587938
vn -0.513280 0.382683 0.768178
vn -0.555570 0.000000 0.831470
vn -0.513280 -0.382683 0.768178
vn -0.392847 -0.707107 0.587938
vn -0.212608 -0.923880 0.318190
vn -0.000000 -1.000000 0.000000
vn 0.212608 -0.923880 -0.318190
vn 0.392847 -0.707107 -0.587938
vn 0.513280 -0.382683 -0.768178
vn 0.555570 -0.000000 -0.831470
vn 0.707107 0.000000 -0.707107
vn 0.653281 0.382683 -0.653281
vn 0.500000 0.707107 -0.500000
vn 0.270598 0.923880 -0.270598
vn 0.000000 1.000000 -0.000000
vn -0.270598 0.923880 0.270598
vn -0.500000 0.707107 0.500000
vn -0.653281 0.382683 0.653281
vn -0.707107 0.000000 0.707107
vn -0.653281 -0.382683 0.653281
vn -0.500000 -0.707107 0.500000
vn -0.270598 -0.923880 0.270598
vn -0.000000 -1.000000 0.000000
vn 0.270598 -0.923880 -0.270598
vn 0.500000 -0.707107 -0.500000
vn 0.653281 -0.382683 -0.653281
vn 0.707107 -0.000000 -0.707107
vn 0.831470 0.000000 -0.555570
vn 0.768178 0.382683 -0.513280
vn 0.587938 0.707107 -0.392847
vn 0.318190 0.923880 -0.212608
vn 0.000000 1.000000 -0.000000
vn -0.318190 0.923880 0.212608
vn -0.587938 0.707107 0.392847
vn -0.768178 0.382683 0.513280
vn -0.831470 0.000000 0.555570
vn -0.768178 -0.382683 0.513280
vn -0.587938 -0.707107 0.392847
vn -0.318190 -0.923880 0.212608
vn -0.000000 -1.000000 0.000000
vn 0.318190 -0.923880 -0.212608
vn 0.587938 -0.707107 -0.392847
vn 0.768178 -0.382683 -0.513280
vn 0.831470 -0.000000 -0.555570
vn 0.923880 0.000000 -0.382683
vn 0.853553 0.382683 -0.353553
vn 0.653281 0.707107 -0.270598
vn 0.353553 0.923880 -0.146447
vn 0.000000 1.000000 -0.000000
vn -0.353553 0.923880 0.146447
vn -0.653281 0.707107 0.270598
vn -0.853553 0.382683 0.353553
vn -0.923880 0.000000 0.382683
vn -0.853553 -0.382683 0.353553
vn -0.653281 -0.707107 0.270598
vn -0.353553 -0.923880 0.146447
vn -0.000000 -1.000000 0.000000
vn 0.353553 -0.923880 -0.146447
vn 0.653281 -0.707107 -0.270598
vn 0.853553 -0.382683 -0.353553
vn 0.923880 -0.000000 -0.382683
vn 0.980785 0.000000 -0.195090
vn 0.906127 0.382683 -0.180240
vn 0.693520 0.707107 -0.137950
vn 0.375330 0.923880 -0.074658
vn 0.000000 1.000000 -0.000000
vn -0.375330 0.923880 0.074658
vn -0.693520 0.707107 0.137950
vn -0.906127 0.382683 0.180240
vn -0.980785 0.000000 0.195090
vn -0.906127 -0.382683 0.180240
vn -0.693520 -0.707107 0.137950
vn -0.375330 -0.923880 0.074658
vn -0.000000 -1.000000 0.000000
vn 0.375330 -0.923880 -0.074658
vn 0.693520 -0.707107 -0.137950
vn 0.906127 -0.382683 -0.180240
vn 0.980785 -0.000000 -0.195090
vn 1.000000 0.000000 -0.000000
vn 0.923880 0.382683 -0.000000
vn 0.707107 0.707107 -0.000000
vn 0.382683 0.923880 -0.000000
vn 0.000000 1.000000 -0.000000
vn -0.382683 0.923880 0.000000
vn -0.707107 0.707107 0.000000
vn -0.923880 0.382683 0.000000
vn -1.000000 0.000000 0.000000
vn -0.923880 -0.382683 0.000000
vn -0.707107 -0.707107 0.000000
vn -0.382683 -0.923880 0.000000
vn -0.000000 -1.000000 0.000000
vn 0.382683 -0.923880 -0.000000
vn 0.707107 -0.707107 -0.000000
vn 0.923880 -0.382683 -0.000000
vn 1.000000 -0.000000 -0.000000
f 1/1/1 18/18/18 19/19/19 2/2/2
f 2/2/2 19/19/19 20/20/20 3/3/3
f 3/3/3 20/20/20 21/21/21 4/4/4
f 4/4/4 21/21/21 22/22/22 5/5/5
f 5/5/5 22/22/22 23/23/23 6/6/6
f 6/6/6 23/23/23 24/24/24 7/7/7
f 7/7/7 24/24/24 25/25/25 8/8/8
f 8/8/8 25/25/25 26/26/26 9/9/9
f 9/9/9 26/26/26 27/27/27 10/10/10
f 10/10/10 27/27/27 28/28/28 11/11/11
f 11/11/11 28/28/28 29/29/29 12/12/12
f 12/12/12 29/29/29 30/30/30 13/13/13
f 13/13/13 30/30/30 31/31/31 14/14/14
f 14/14/14 31/31/31 32/32/32 15/15/15
f 15/15/15 32/32/32 33/33/33 16/16/16
f 16/16/16 33/33/33 34/34/34 17/17/17
f 18/18/18 35/35/35 36/36/36 19/19/19
f 19/19/19 36/36/36 37/37/37 20/20/20
f 20/20/20 37/37/37 38/38/38 21/21/21
f 21/21/21 38/38/38 39/39/39 22/22/22
f 22/22/22 39/39/39 40/40/40 23/23/23
f 23/23/23 40/40/40 41/41/41 24/24/24
f 24/24/24 41/41/41 42/42/42 25/25/25
f 25/25/25 42/42/42 43/43/43 26/26/26
f 26/26/26 43/43/43 44/44/44 27/27/27
f 27/27/27 44/44/44 45/45/45 28/28/28
f 28/28/28 45/45/45 46/46/46 29/29/29
f 29/29/29 46/46/46 47/47/47 30/30/30
f 30/30/30 47/47/47 48/48/48 31/31/31
f 31/31/31 48/48/48 49/49/49 32/32/32
f 32/32/32 49/49/49 50/50/50 33/33/33
f 33/33/33 50/50/50 51/51/51 34/34/34
f 35/35/35 52/52/52 53/53/53 36/36/36
f 36/36/36 53/53/53 54/54/54 37/37/37
f 37/37/37 54/54/54 55/55/55 38/38/38
f 38/38/38 55/55/55 56/56/56 39/39/39
f 39/39/39 56/56/56 57/57/57 40/40/40
f 40/40/40 57/57/57 58/58/58 41/41/41
f 41/41/41 58/58/58 59/59/59 42/42/42
f 42/42/42 59/59/59 60/60/60 43/43/43
f 43/43/43 60/60/60 61/61/61 44/44/44
f 44/44/44 61/61/61 62/62/62 45/45/45
f 45/45/45 62/62/62 63/63/63 46/46/46
f 46/46/46 63/63/63 64/64/64 47/47/47
f 47/47/47 64/64/64 65/65/65 48/48/48
f 48/48/48 65/65/65 66/66/66 49/49/49
f 49/49/49 66/66/66 67/67/67 50/50/50
f 50/50/50 67/67/67 68/68/68 51/51/51
f 52/52/52 69/69/69 70/70/70 53/53/53
f 53/53/53 70/70/70 71/71/71 54/54/54
f 54/54/54 71/71/71 72/72/72 55/55/55
f 55/55/55 72/72/72 73/73/73 56/56/56
f 56/56/56 73/73/73 74/74/74 57/57/57
f 57/57/57 74/74/74 75/75/75 58/58/58
f 58/58/58 75/75/75 76/76/76 59/59/59
f 59/59/59 76/76/76 77/77/77 60/60/60
f 60/60/60 77/77/77 78/78/78 61/61/61
f 61/61/61 78/78/78 79/79/79 62/62/62
f 62/62/62 79/79/79 80/80/80 63/63/63
f 63/63/63 80/80/80 81/81/81 64/64/64
f 64/64/64 81/81/81 82/82/82 65/65/65
f 65/65/65 82/82/82 83/83/83 66/66/66
f 66/66/66 83/83/83 84/84/84 67/67/67
f 67/67/67 84/84/84 85/85/85 68/68/68
f 69/69/69 86/86/86 87/87/87 70/70/70
f 70/70/70 87/87/87 88/88/88 71/71/71
f 71/71/71 88/88/88 89/89/89 72/72/72
f 72/72/72 89/89/89 90/90/90 73/73/73
f 73/73/73 90/90/90 91/91/91 74/74/74
f 74/74/74 91/91/91 92/92/92 75/75/75
f 75/75/75 92/92/92 93/93/93 76/76/76
f 76/76/76 93/93/93 94/94/94 77/77/77
f 77/77/77 94/94/94 95/95/95 78/78/78
f 78/78/78 95/95/95 96/96/96 79/79/79
f 79/79/79 96/96/96 97/97/97 80/80/80
f 80/80/80 97/97/97 98/98/98 81/81/81
f 81/81/81 98/98/98 99/99/99 82/82/82
f 82/82/82 99/99/99 100/100/100 83/83/83
f 83/83/83 100/100/100 101/101/101 84/84/84
f 84/84/84 101/101/101 102/102/102 85/85/85
f 86/86/86 103/103/103 104/104/104 87/87/87
f 87/87/87 104/104/104 105/105/105 88/88/88
f 88/88/88 105/105/105 106/106/106 89/89/89
f 89/89/89 106/106/106 107/107/107 90/90/90
f 90/90/90 107/107/107 108/108/108 91/91/91
f 91/91/91 108/108/108 109/109/109 92/92/92
f 92/92/92 109/109/109 110/110/110 93/93/93
f 93/93/93 110/110/110 111/111/111 94/94/94
f 94/94/94 111/111/111 112/112/112 95/95/95
f 95/95/95 112/112/112 113/113/113 96/96/96
f 96/96/96 113/113/113 114/114/114 97/97/97
f 97/97/97 114/114/114 115/115/115 98/98/98
f 98/98/98 115/115/115 116/116/116 99/99/99
f 99/99/99 116/116/116 117/117/117 100/100/100
f 100/100/100 117/117/117 118/118/118 101/101/101
f 101/101/101 118/118/118 119/119/119 102/102/102
f 103/103/103 120/120/120 121/121/121 104/104/104
f 104/104/104 121/121/121 122/122/122 105/105/105
f 105/105/105 122/122/122 123/123/123 106/106/106
f 106/106/106 123/123/123 124/124/124 107/107/107
f 107/107/107 124/124/124 125/125/125 108/108/108
f 108/108/108 125/125/125 126/126/126 109/109/109
f 109/109/109 126/126/126 127/127/127 110/110/110
f 110/110/110 127/127/127 128/128/128 111/111/111
f 111/111/111 128/128/128 129/129/129 112/112/112
f 112/112/112 129/129/129 130/130/130 113/113/113
f 113/113/113 130/130/130 131/131/131 114/114/114
f 114/114/114 131/131/131 132/132/132 115/115/115
f 115/115/115 132/132/132 133/133/133 116/116/116
f 116/116/116 133/133/133 134/134/134 117/117/117
f 117/117/117 134/134/134 135/135/135 118/118/118
f 118/118/118 135/135/135 136/136/136 119/119/119
f 120/120/120 137/137/137 138/138/138 121/121/121
f 121/121/121 138/138/138 139/139/139 122/122/122
f 122/122/122 139/139/139 140/140/140 123/123/123
f 123/123/123 140/140/140 141/141/141 124/124/124
f 124/124/124 141/141/141 142/142/142 125/125/125
f 125/125/125 142/142/142 143/143/143 126/126/126
f 126/126/126 143/143/143 144/144/144 127/127/127
f 127/127/127 144/144/144 145/145/145 128/128/128
f 128/128/128 145/145/145 146/146/146 129/129/129
f 129/129/129 146/146/146 147/147/147 130/130/130
f 130/130/130 147/147/147 148/148/148 131/131/131
f 131/131/131 148/148/148 149/149/149 132/132/132
f 132/132/132 149/149/149 150/150/150 133/133/133
f 133/133/133 150/150/150 151/151/151 134/134/134
f 134/134/134 151/151/151 152/152/152 135/135/135
f 135/135/135 152/152/152 153/153/153 136/136/136
f 137/137/137 154/154/154 155/155/155 138/138/138
f 138/138/138 155/155/155 156/156/156 139/139/139
f 139/139/139 156/156/156 157/157/157 140/140/140
f 140/140/140 157/157/157 158/158/158 141/141/141
f 141/141/141 158/158/158 159/159/159 142/142/142
f 142/142/142 159/159/159 160/160/160 143/143/143
f 143/143/143 160/160/160 161/161/161 144/144/144
f 144/144/144 161/161/161 162/162/162 145/145/145
f 145/145/145 162/162/162 163/163/163 146/146/146
f 146/146/146 163/163/163 164/164/164 147/147/147
f 147/147/147 164/164/164 165/165/165 148/148/148
f 148/148/148 165/165/165 166/166/166 149/149/149
f 149/149/149 166/166/166 167/167/167 150/150/150
f 150/150/150 167/167/167 168/168/168 151/151/151
f 151/151/151 168/168/168 169/169/169 152/152/152
f 152/152/152 169/169/169 170/170/170 153/153/153
f 154/154/154 171/171/171 172/172/172 155/155/155
f 155/155/155 172/172/172 173/173/173 156/156/156
f 156/156/156 173/173/173 174/174/174 157/157/157
f 157/157/157 174/174/174 175/175/175 158/158/158
f 158/158/158 175/175/175 176/176/176 159/159/159
f 159/159/159 176/176/176 177/177/177 160/160/160
f 160/160/160 177/177/177 178/178/178 161/161/161
f 161/161/161 178/178/178 179/179/179 162/162/162
f 162/162/162 179/179/179 180/180/180 163/163/163
f 163/163/163 180/180/180 181/181/181 164/164/164
f 164/164/164 181/181/181 182/182/182 165/165/165
f 165/165/165 182/182/182 183/183/183 166/166/166
f 166/166/166 183/183/183 184/184/184 167/167/167
f 167/167/167 184/184/184 185/185/185 168/168/168
f 168/168/168 185/185/185 186/186/186 169/169/169
f 169/169/169 186/186/186 187/187/187 170/170/170
f 171/171/171 188/188/188 189/189/189 172/172/172
f 172/172/172 189/189/189 190/190/190 173/173/173
f 173/173/173 190/190/190 191/191/191 174/174/174
f 174/174/174 191/191/191 192/192/192 175/175/175
f 175/175/175 192/192/192 193/193/193 176/176/176
f 176/176/176 193/193/193 194/194/194 177/177/177
f 177/177/177 194/194/194 195/195/195 178/178/178
f 178/178/178 195/195/195 196/196/196 179/179/179
f 179/179/179 196/196/196 197/197/197 180/180/180
f 180/180/180 197/197/197 198/198/198 181/181/181
f 181/181/181 198/198/198 199/199/199 182/182/182
f 182/182/182 199/199/199 200/200/200 183/183/183
f 183/183/183 200/200/200 201/201/201 184/184/184
f 184/184/184 201/201/201 202/202/202 185/185/185
f 185/185/185 202/202/202 203/203/203 186/186/186
f 186/186/186 203/203/203 204/204/204 187/187/187
f 188/188/188 205/205/205 206/206/206 189/189/189
f 189/189/189 206/206/206 207/207/207 190/190/190
f 190/190/190 207/207/207 208/208/208 191/191/191
f 191/191/191 208/208/208 209/209/209 192/192/192
f 192/192/192 209/209/209 210/210/210 193/193/193
f 193/193/193 210/210/210 211/211/211 194/194/194
f 194/194/194 211/211/211 212/212/212 195/195/195
f 195/195/195 212/212/212 213/213/213 196/196/196
f 196/196/196 213/213/213 214/214/214 197/197/197
f 197/197/197 214/214/214 215/215/215 198/198/198
f 198/198/198 215/215/215 216/216/216 199/199/199
f 199/199/199 216/216/216 217/217/217 200/200/200
f 200/200/200 217/217/217 218/218/218 201/201/201
f 201/201/201 218/218/218 219/219/219 202/202/202
f 202/202/202 219/219/219 220/220/220 203/203/203
f 203/203/203 220/220/220 221/221/221 204/204/204
f 205/205/205 222/222/222 223/223/223 206/206/206
f 206/206/206 223/223/223 224/224/224 207/207/207
f 207/207/207 224/224/224 225/225/225 208/208/208
f 208/208/208 225/225/225 226/226/226 209/209/209
f 209/209/209 226/226/226 227/227/227 210/210/210
f 210/210/210 227/227/227 228/228/228 211/211/211
f 211/211/211 228/228/228 229/229/229 212/212/212
f 212/212/212 229/229/229 230/230/230 213/213/213
f 213/213/213 230/230/230 231/231/231 214/214/214
f 214/214/214 231/231/231 232/232/232 215/215/215
f 215/215/215 232/232/232 233/233/233 216/216/216
f 216/216/216 233/233/233 234/234/234 217/217/217
f 217/217/217 234/234/234 235/235/235 218/218/218
f 218/218/218 235/235/235 236/236/236 219/219/219
f 219/219/219 236/236/236 237/237/237 220/220/220
f 220/220/220 237/237/237 238/238/238 221/221/221
f 222/222/222 239/239/239 240/240/240 223/223/223
f 223/223/223 240/240/240 241/241/241 224/224/224
f 224/224/224 241/241/241 242/242/242 225/225/225
f 225/225/225 242/242/242 243/243/243 226/226/226
f 226/226/226 243/243/243 244/244/244 227/227/227
f 227/227/227 244/244/244 245/245/245 228/228/228
f 228/228/228 245/245/245 246/246/246 229/229/229
f 229/229/229 246/246/246 247/247/247 230/230/230
f 230/230/230 247/247/247 248/248/248 231/231/231
f 231/231/231 248/248/248 249/249/249 232/232/232
f 232/232/232 249/249/249 250/250/250 233/233/233
f 233/233/233 250/250/250 251/251/251 234/234/234
f 234/234/234 251/251/251 252/252/252 235/235/235
f 235/235/235 252/252/252 253/253/253 236/236/236
f 236/236/236 253/253/253 254/254/254 237/237/237
f 237/237/237 254/254/254 255/255/255 238/238/238
f 239/239/239 256/256/256 257/257/257 240/240/240
f 240/240/240 257/257/257 258/258/258 241/241/241
f 241/241/241 258/258/258 259/259/259 242/242/242
f 242/242/242 259/259/259 260/260/260 243/243/243
f 243/243/243 260/260/260 261/261/261 244/244/244
f 244/244/244 261/261/261 262/262/262 245/245/245
f 245/245/245 262/262/262 263/263/263 246/246/246
f 246/246/246 263/263/263 264/264/264 247/247/247
f 247/247/247 264/264/264 265/265/265 248/248/248
f 248/248/248 265/265/265 266/266/266 249/249/249
f 249/249/249 266/266/266 267/267/267 250/250/250
f 250/250/250 267/267/267 268/268/268 251/251/251
f 251/251/251 268/268/268 269/269/269 252/252/252
f 252/252/252 269/269/269 270/270/270 253/253/253
f 253/253/253 270/270/270 271/271/271 254/254/254
f 254/254/254 271/271/271 272/272/272 255/255/255
f 256/256/256 273/273/273 274/274/274 257/257/257
f 257/257/257 274/274/274 275/275/275 258/258/258
f 258/258/258 275/275/275 276/276/276 259/259/259
f 259/259/259 276/276/276 277/277/277 260/260/260
f 260/260/260 277/277/277 278/278/278 261/261/261
f 261/261/261 278/278/278 279/279/279 262/262/262
f 262/262/262 279/279/279 280/280/280 263/263/263
f 263/263/263 280/280/280 281/281/281 264/264/264
f 264/264/264 281/281/281 282/282/282 265/265/265
f 265/265/265 282/282/282 283/283/283 266/266/266
f 266/266/266 283/283/283 284/284/284 267/267/267
f 267/267/267 284/284/284 285/285/285 268/268/268
f 268/268/268 285/285/285 286/286/286 269/269/269
f 269/269/269 286/286/286 287/287/287 270/270/270
f 270/270/270 287/287/287 288/288/288 271/271/271
f 271/271/271 288/288/288 289/289/289 272/272/272
f 273/273/273 290/290/290 291/291/291 274/274/274
f 274/274/274 291/291/291 292/292/292 275/275/275
f 275/275/275 292/292/292 293/293/293 276/276/276
f 276/276/276 293/293/293 294/294/294 277/277/277
f 277/277/277 294/294/294 295/295/295 278/278/278
f 278/278/278 295/295/295 296/296/296 279/279/279
f 279/279/279 296/296/296 297/297/297 280/280/280
f 280/280/280 297/297/297 298/298/298 281/281/281
f 281/281/281 298/298/298 299/299/299 282/282/282
f 282/282/282 299/299/299 300/300/300 283/283/283
f 283/283/283 300/300/300 301/301/301 284/284/284
f 284/284/284 301/301/301 302/302/302 285/285/285
f 285/285/285 302/302/302 303/303/303 286/286/286
f 286/286/286 303/303/303 304/304/304 287/287/287
f 287/287/287 304/304/304 305/305/305 288/288/288
f 288/288/288 305/305/305 306/306/306 289/289/289
f 290/290/290 307/307/307 308/308/308 291/291/291
f 291/291/291 308/308/308 309/309/309 292/292/292
f 292/292/292 309/309/309 310/310/310 293/293/293
f 293/293/293 310/310/310 311/311/311 294/294/294
f 294/294/294 311/311/311 312/312/312 295/295/295
f 295/295/295 312/312/312 313/313/313 296/296/296
f 296/296/296 313/313/313 314/314/314 297/297/297
f 297/297/297 314/314/314 315/315/315 298/298/298
f 298/298/298 315/315/315 316/316/316 299/299/299
f 299/299/299 316/316/316 317/317/317 300/300/300
f 300/300/300 317/317/317 318/318/318 301/301/301
f 301/301/301 318/318/318 319/319/319 302/302/302
f 302/302/302 319/319/319 320/320/320 303/303/303
f 303/303/303 320/320/320 321/321/321 304/304/304
f 304/304/304 321/321/321 322/322/322 305/305/305
f 305/305/305 322/322/322 323/323/323 306/306/306
f 307/307/307 324/324/324 325/325/325 308/308/308
f 308/308/308 325/325/325 326/326/326 309/309/309
f 309/309/309 326/326/326 327/327/327 310/310/310
f 310/310/310 327/327/327 328/328/328 311/311/311
f 311/311/311 328/328/328 329/329/329 312/312/312
f 312/312/312 329/329/329 330/330/330 313/313/313
f 313/313/313 330/330/330 331/331/331 314/314/314
f 314/314/314 331/331/331 332/332/332 315/315/315
f 315/315/315 332/332/332 333/333/333 316/316/316
f 316/316/316 333/333/333 334/334/334 317/317/317
f 317/317/317 334/334/334 335/335/335 318/318/318
f 318/318/318 335/335/335 336/336/336 319/319/319
f 319/319/319 336/336/336 337/337/337 320/320/320
f 320/320/320 337/337/337 338/338/338 321/321/321
f 321/321/321 338/338/338 339/339/339 322/322/322
f 322/322/322 339/339/339 340/340/340 323/323/323
f 324/324/324 341/341/341 342/342/342 325/325/325
f 325/325/325 342/342/342 343/343/343 326/326/326
f 326/326/326 343/343/343 344/344/344 327/327/327
f 327/327/327 344/344/344 345/345/345 328/328/328
f 328/328/328 345/345/345 346/346/346 329/329/329
f 329/329/329 346/346/346 347/347/347 330/330/330
f 330/330/330 347/347/347 348/348/348 331/331/331
f 331/331/331 348/348/348 349/349/349 332/332/332
f 332/332/332 349/349/349 350/350/350 333/333/333
f 333/333/333 350/350/350 351/351/351 334/334/334
f 334/334/334 351/351/351 352/352/352 335/335/335
f 335/335/335 352/352/352 353/353/353 336/336/336
f 336/336/336 353/353/353 354/354/354 337/337/337
f 337/337/337 354/354/354 355/355/355 338/338/338
f 338/338/338 355/355/355 356/356/356 339/339/339
f 339/339/339 356/356/356 357/357/357 340/340/340
f 341/341/341 358/358/358 359/359/359 342/342/342
f 342/342/342 359/359/359 360/360/360 343/343/343
f 343/343/343 360/360/360 361/361/361 344/344/344
f 344/344/344 361/361/361 362/362/362 345/345/345
f 345/345/345 362/362/362 363/363/363 346/346/346
f 346/346/346 363/363/363 364/364/364 347/347/347
f 347/347/347 364/364/364 365/365/365 348/348/348
f 348/348/348 365/365/365 366/366/366 349/349/349
f 349/349/349 366/366/366 367/367/367 350/350/350
f 350/350/350 367/367/367 368/368/368 351/351/351
f 351/351/351 368/368/368 369/369/369 352/352/352
f 352/352/352 369/369/369 370/370/370 353/353/353
f 353/353/353 370/370/370 371/371/371 354/354/354
f 354/354/354 371/371/371 372/372/372 355/355/355
f 355/355/355 372/372/372 373/373/373 356/356/356
f 356/356/356 373/373/373 374/374/374 357/357/357
f 358/358/358 375/375/375 376/376/376 359/359/359
f 359/359/359 376/376/376 377/377/377 360/360/360
f 360/360/360 377/377/377 378/378/378 361/361/361
f 361/361/361 378/378/378 379/379/379 362/362/362
f 362/362/362 379/379/379 380/380/380 363/363/363
f 363/363/363 380/380/380 381/381/381 364/364/364
f 364/364/364 381/381/381 382/382/382 365/365/365
f 365/365/365 382/382/382 383/383/383 366/366/366
f 366/366/366 383/383/383 384/384/384 367/367/367
f 367/367/367 384/384/384 385/385/385 368/368/368
f 368/368/368 385/385/385 386/386/386 369/369/369
f 369/369/369 386/386/386 387/387/387 370/370/370
f 370/370/370 387/387/387 388/388/388 371/371/371
f 371/371/371 388/388/388 389/389/389 372/372/372
f 372/372/372 389/389/389 390/390/390 373/373/373
f 373/373/373 390/390/390 391/391/391 374/374/374
f 375/375/375 392/392/392 393/393/393 376/376/376
f 376/376/376 393/393/393 394/394/394 377/377/377
f 377/377/377 394/394/394 395/395/395 378/378/378
f 378/378/378 395/395/395 396/396/396 379/379/379
f 379/379/379 396/396/396 397/397/397 380/380/380
f 380/380/380 397/397/397 398/398/398 381/381/381
f 381/381/381 398/398/398 399/399/399 382/382/382
f 382/382/382 399/399/399 400/400/400 383/383/383
f 383/383/383 400/400/400 401/401/401 384/384/384
f 384/384/384 401/401/401 402/402/402 385/385/385
f 385/385/385 402/402/402 403/403/403 386/386/386
f 386/386/386 403/403/403 404/404/404 387/387/387
f 387/387/387 404/404/404 405/405/405 388/388/388
f 388/388/388 405/405/405 406/406/406 389/389/389
f 389/389/389 406/406/406 407/407/407 390/390/390
f 390/390/390 407/407/407 408/408/408 391/391/391
f 392/392/392 409/409/409 410/410/410 393/393/393
f 393/393/393 410/410/410 411/411/411 394/394/394
f 394/394/394 411/411/411 412/412/412 395/395/395
f 395/395/395 412/412/412 413/413/413 396/396/396
f 396/396/396 413/413/413 414/414/414 397/397/397
f 397/397/397 414/414/414 415/415/415 398/398/398
f 398/398/398 415/415/415 416/416/416 399/399/399
f 399/399/399 416/416/416 417/417/417 400/400/400
f 400/400/400 417/417/417 418/418/418 401/401/401
f 401/401/401 418/418/418 419/419/419 402/402/402
f 402/402/402 419/419/419 420/420/420 403/403/403
f 403/403/403 420/420/420 421/421/421 404/404/404
f 404/404/404 421/421/421 422/422/422 405/405/405
f 405/405/405 422/422/422 423/423/423 406/406/406
f 406/406/406 423/423/423 424/424/424 407/407/407
f 407/407/407 424/424/424 425/425/425 408/408/408
f 409/409/409 426/426/426 427/427/427 410/410/410
f 410/410/410 427/427/427 428/428/428 411/411/411
f 411/411/411 428/428/428 429/429/429 412/412/412
f 412/412/412 429/429/429 430/430/430 413/413/413
f 413/413/413 430/430/430 431/431/431 414/414/414
f 414/414/414 431/431/431 432/432/432 415/415/415
f 415/415/415 432/432/432 433/433/433 416/416/416
f 416/416/416 433/433/433 434/434/434 417/417/417
f 417/417/417 434/434/434 435/435/435 418/418/418
f 418/418/418 435/435/435 436/436/436 419/419/419
f 419/419/419 436/436/436 437/437/437 420/420/420
f 420/420/420 437/437/437 438/438/438 421/421/421
f 421/421/421 438/438/438 439/439/439 422/422/422
f 422/422/422 439/439/439 440/440/440 423/423/423
f 423/423/423 440/440/440 441/441/441 424/424/424
f 424/424/424 441/441/441 442/442/442 425/425/425
f 426/426/426 443/443/443 444/444/444 427/427/427
f 427/427/427 444/444/444 445/445/445 428/428/428
f 428/428/428 445/445/445 446/446/446 429/429/429
f 429/429/429 446/446/446 447/447/447 430/430/430
f 430/430/430 447/447/447 448/448/448 431/431/431
f 431/431/431 448/448/448 449/449/449 432/432/432
f 432/432/432 449/449/449 450/450/450 433/433/433
f 433/433/433 450/450/450 451/451/451 434/434/434
f 434/434/434 451/451/451 452/452/452 435/435/435
f 435/435/435 452/452/452 453/453/453 436/436/436
f 436/436/436 453/453/453 454/454/454 437/437/437
f 437/437/437 454/454/454 455/455/455 438/438/438
f 438/438/438 455/455/455 456/456/456 439/439/439
f 439/439/439 456/456/456 457/457/457 440/440/440
f 440/440/440 457/457/457 458/458/458 441/441/441
f 441/441/441 458/458/458 459/459/459 442/442/442
f 443/443/443 460/460/460 461/461/461 444/444/444
f 444/444/444 461/461/461 462/462/462 445/445/445
f 445/445/445 462/462/462 463/463/463 446/446/446
f 446/446/446 463/463/463 464/464/464 447/447/447
f 447/447/447 464/464/464 465/465/465 448/448/448
f 448/448/448 465/465/465 466/466/466 449/449/449
f 449/449/449 466/466/466 467/467/467 450/450/450
f 450/450/450 467/467/467 468/468/468 451/451/451
f 451/451/451 468/468/468 469/469/469 452/452/452
f 452/452/452 469/469/469 470/470/470 453/453/453
f 453/453/453 470/470/470 471/471/471 454/454/454
f 454/454/454 471/471/471 472/472/472 455/455/455
f 455/455/455 472/472/472 473/473/473 456/456/456
f 456/456/456 473/473/473 474/474/474 457/457/457
f 457/457/457 474/474/474 475/475/475 458/458/458
f 458/458/458 475/475/475 476/476/476 459/459/459
f 460/460/460 477/477/477 478/478/478 461/461/461
f 461/461/461 478/478/478 479/479/479 462/462/462
f 462/462/462 479/479/479 480/480/480 463/463/463
f 463/463/463 480/480/480 481/481/481 464/464/464
f 464/464/464 481/481/481 482/482/482 465/465/465
f 465/465/465 482/482/482 483/483/483 466/466/466
f 466/466/466 483/483/483 484/484/484 467/467/467
f 467/467/467 484/484/484 485/485/485 468/468/468
f 468/468/468 485/485/485 486/486/486 469/469/469
f 469/469/469 486/486/486 487/487/487 470/470/470
f 470/470/470 487/487/487 488/488/488 471/471/471
f 471/471/471 488/488/488 489/489/489 472/472/472
f 472/472/472 489/489/489 490/490/490 473/473/473
f 473/473/473 490/490/490 491/491/491 474/474/474
f 474/474/474 491/491/491 492/492/492 475/475/475
f 475/475/475 492/492/492 493/493/493 476/476/476
f 477/477/477 494/494/494 495/495/495 478/478/478
f 478/478/478 495/495/495 496/496/496 479/479/479
f 479/479/479 496/496/496 497/497/497 480/480/480
f 480/480/480 497/497/497 498/498/498 481/481/481
f 481/481/481 498/498/498 499/499/499 482/482/482
f 482/482/482 499/499/499 500/500/500 483/483/483
f 483/483/483 500/500/500 501/501/501 484/484/484
f 484/484/484 501/501/501 502/502/502 485/485/485
f 485/485/485 502/502/502 503/503/503 486/486/486
f 486/486/486 503/503/503 504/504/504 487/487/487
f 487/487/487 504/504/504 505/505/505 488/488/488
f 488/488/488 505/505/505 506/506/506 489/489/489
f 489/489/489 506/506/506 507/507/507 490/490/490
f 490/490/490 507/507/507 508/508/508 491/491/491
f 491/491/491 508/508/508 509/509/509 492/492/492
f 492/492/492 509/509/509 510/510/510 493/493/493
f 494/494/494 511/511/511 512/512/512 495/495/495
f 495/495/495 512/512/512 513/513/513 496/496/496
f 496/496/496 513/513/513 514/514/514 497/497/497
f 497/497/497 514/514/514 515/515/515 498/498/498
f 498/498/498 515/515/515 516/516/516 499/499/499
f 499/499/499 516/516/516 517/517/517 500/500/500
f 500/500/500 517/517/517 518/518/518 501/501/501
f 501/501/501 518/518/518 519/519/519 502/502/502
f 502/502/502 519/519/519 520/520/520 503/503/503
f 503/503/503 520/520/520 521/521/521 504/504/504
f 504/504/504 521/521/521 522/522/522 505/505/505
f 505/505/505 522/522/522 523/523/523 506/506/506
f 506/506/506 523/523/523 524/524/524 507/507/507
f 507/507/507 524/524/524 525/525/525 508/508/508
f 508/508/508 525/525/525 526/526/526 509/509/509
f 509/509/509 526/526/526 527/527/527 510/510/510
f 511/511/511 528/528/528 529/529/529 512/512/512
f 512/512/512 529/529/529 530/530/530 513/513/513
f 513/513/513 530/530/530 531/531/531 514/514/514
f 514/514/514 531/531/531 532/532/532 515/515/515
f 515/515/515 532/532/532 533/533/533 516/516/516
f 516/516/516 533/533/533 534/534/534 517/517/517
f 517/517/517 534/534/534 535/535/535 518/518/518
f 518/518/518 535/535/535 536/536/536 519/519/519
f 519/519/519 536/536/536 537/537/537 520/520/520
f 520/520/520 537/537/537 538/538/538 521/521/521
f 521/521/521 538/538/538 539/539/539 522/522/522
f 522/522/522 539/539/539 540/540/540 523/523/523
f 523/523/523 540/540/540 541/541/541 524/524/524
f 524/524/524 541/541/541 542/542/542 525/525/525
f 525/525/525 542/542/542 543/543/543 526/526/526
f 526/526/526 543/543/543 544/544/544 527/527/527
f 528/528/528 545/545/545 546/546/546 529/529/529
f 529/529/529 546/546/546 547/547/547 530/530/530
f 530/530/530 547/547/547 548/548/548 531/531/531
f 531/531/531 548/548/548 549/549/549 532/532/532
f 532/532/532 549/549/549 550/550/550 533/533/533
f 533/533/533 550/550/550 551/551/551 534/534/534
f 534/534/534 551/551/551 552/552/552 535/535/535
f 535/535/535 552/552/552 553/553/553 536/536/536
f 536/536/536 553/553/553 554/554/554 537/537/537
f 537/537/537 554/554/554 555/555/555 538/538/538
f 538/538/538 555/555/555 556/556/556 539/539/539
f 539/539/539 556/556/556 557/557/557 540/540/540
f 540/540/540 557/557/557 558/558/558 541/541/541
f 541/541/541 558/558/558 559/559/559 542/542/542
f 542/542/542 559/559/559 560/560/560 543/543/543
f 543/543/543 560/560/560 561/561/561 544/544/544
